# xmcd
#
# Track frame offsets: 
#        150
#        13727
#        30848
#        44943
#        58886
#        73817
#        86895
#
# Disc length: 1335 seconds
#
# Revision: 0
# Processed by: cddbd v1.5.2PL0 Copyright (c) Steve Scherf et al.
# Submitted via: ExactAudioCopy v0.99pb5
#
DISCID=63053507
DTITLE=INROU - INROU
DYEAR=1973
DGENRE=Alternative
TTITLE0=PODZIM
TTITLE1=SEDIVEJ STIN
TTITLE2=VE
TTITLE3=PRAVOPISNE CHCI TI LHAT
TTITLE4=DOPIS PRO VAS
TTITLE5=ANCA
TTITLE6=PODZIM
EXTD=
EXTT0=
EXTT1=
EXTT2=
EXTT3=
EXTT4=
EXTT5=
EXTT6=
PLAYORDER=
